# xmcd CD database file
#
# Track frame offsets:
#	187
#	23147
#	41762
#	67865
#	89990
#	113385
#	145090
#	170167
#	197172
#	226587
#	243387
#
# Disc length: 3457 seconds
#
# Revision: 0
# Processed by: cddbd v1.5PL3 Copyright (c) Steve Scherf et al.
# Submitted via: CDex 1.50
#
DISCID=8f0d7f0b
DTITLE=Roy Gerson - That Gerson Person
DYEAR=1991
DGENRE=Jazz
TTITLE0=Somebody Loves Me
TTITLE1=Lulu's Back in Town
TTITLE2=Poor Butterfly
TTITLE3=My Blue Heaven
TTITLE4=Soft Winds
TTITLE5=If I Had You
TTITLE6=Lover
TTITLE7=Lover Come Back to Me
TTITLE8=When I Fall in Love
TTITLE9=Jeepers Creepers
TTITLE10=Top Hat
EXTD=YEAR: 1991
EXTT0=
EXTT1=
EXTT2=
EXTT3=
EXTT4=
EXTT5=
EXTT6=
EXTT7=
EXTT8=
EXTT9=
EXTT10=
PLAYORDER=
